<svg id="visual" viewBox="0 0 1400 1000" width="1400" height="1000" xmlns="http://www.w3.org/2000/svg" xmlns:xlink="http://www.w3.org/1999/xlink" version="1.1"><rect x="0" y="0" width="1400" height="1000" fill="#14b789"></rect><path d="M0 436L33.3 406.8C66.7 377.7 133.3 319.3 200 283.2C266.7 247 333.3 233 400 262.8C466.7 292.7 533.3 366.3 600 409.3C666.7 452.3 733.3 464.7 800 463.7C866.7 462.7 933.3 448.3 1000 428.7C1066.7 409 1133.3 384 1200 393.8C1266.7 403.7 1333.3 448.3 1366.7 470.7L1400 493L1400 0L1366.7 0C1333.3 0 1266.7 0 1200 0C1133.3 0 1066.7 0 1000 0C933.3 0 866.7 0 800 0C733.3 0 666.7 0 600 0C533.3 0 466.7 0 400 0C333.3 0 266.7 0 200 0C133.3 0 66.7 0 33.3 0L0 0Z" fill="#4d5695" stroke-linecap="round" stroke-linejoin="miter"></path></svg>