<svg id="visual" viewBox="0 0 2500 1000" width="2500" height="1000" xmlns="http://www.w3.org/2000/svg" xmlns:xlink="http://www.w3.org/1999/xlink" version="1.1"><rect x="0" y="0" width="2500" height="1000" fill="#14b789"></rect><path d="M0 436L59.5 406.8C119 377.7 238 319.3 357 283.2C476 247 595 233 714 262.8C833 292.7 952 366.3 1071.2 409.3C1190.3 452.3 1309.7 464.7 1428.8 463.7C1548 462.7 1667 448.3 1786 428.7C1905 409 2024 384 2143 393.8C2262 403.7 2381 448.3 2440.5 470.7L2500 493L2500 0L2440.5 0C2381 0 2262 0 2143 0C2024 0 1905 0 1786 0C1667 0 1548 0 1428.8 0C1309.7 0 1190.3 0 1071.2 0C952 0 833 0 714 0C595 0 476 0 357 0C238 0 119 0 59.5 0L0 0Z" fill="#4d5695" stroke-linecap="round" stroke-linejoin="miter"></path></svg>